<?xml version="1.0" encoding="UTF-8" standalone="no"?>
<!-- Created with Inkscape (http://www.inkscape.org/) -->

<svg
   version="1.1"
   id="svg2"
   width="159.03999"
   height="170.88"
   viewBox="0 0 159.03999 170.88"
   sodipodi:docname="tonnitostiName.svg"
   inkscape:version="1.2 (dc2aedaf03, 2022-05-15)"
   xmlns:inkscape="http://www.inkscape.org/namespaces/inkscape"
   xmlns:sodipodi="http://sodipodi.sourceforge.net/DTD/sodipodi-0.dtd"
   xmlns="http://www.w3.org/2000/svg"
   xmlns:svg="http://www.w3.org/2000/svg">
  <defs
     id="defs6">
    <rect
       x="96.879766"
       y="44.627915"
       width="19.338763"
       height="63.966679"
       id="rect722" />
  </defs>
  <sodipodi:namedview
     id="namedview4"
     pagecolor="#ffffff"
     bordercolor="#000000"
     borderopacity="0.25"
     inkscape:showpageshadow="2"
     inkscape:pageopacity="0.0"
     inkscape:pagecheckerboard="0"
     inkscape:deskcolor="#d1d1d1"
     showgrid="false"
     showguides="false"
     inkscape:zoom="3.8026788"
     inkscape:cx="78.234323"
     inkscape:cy="129.38248"
     inkscape:window-width="1920"
     inkscape:window-height="1017"
     inkscape:window-x="-8"
     inkscape:window-y="-8"
     inkscape:window-maximized="1"
     inkscape:current-layer="text180" />
  <g
     inkscape:groupmode="layer"
     inkscape:label="Image"
     id="g8">
    <g
       id="g409"
       transform="translate(0.5005223,0.42723021)"
       style="display:inline">
      <path
         style="display:inline;fill:#dadad8;stroke-width:0.32"
         d="m 104.21634,127.72432 c -1.28987,-1.17386 -3.71321,-3.37916 -5.385209,-4.90067 -1.672,-1.52151 -4.695999,-4.26639 -6.719999,-6.09973 -4.289331,-3.88528 -6.387472,-5.80646 -9.270825,-8.48891 -1.149047,-1.06899 -2.43673,-2.25364 -2.86152,-2.63256 l -0.772346,-0.68894 1.135837,-2.32745 c 0.62471,-1.28009 1.315021,-2.83931 1.534022,-3.46492 0.352035,-1.005651 0.658995,-1.238608 2.648634,-2.01008 3.017856,-1.17016 6.17342,-3.317853 8.385615,-5.707286 2.020934,-2.182851 2.015962,-2.183757 2.927754,0.534841 0.295145,0.88 3.601903,9.520005 7.348357,19.200005 l 6.81173,17.6 -1.18363,0.53626 c -1.82015,0.82466 -2.08756,0.73449 -4.59842,-1.55056 z m -54.534012,-4.40731 c 4.46142,-5.47743 5.299507,-12.26273 2.263341,-18.32448 -0.863328,-1.72366 -1.550384,-3.2086 -1.526791,-3.29988 0.536359,-2.075033 0.631299,-1.872403 -2.102777,-4.487939 -2.827501,-2.704912 -2.850576,-2.760307 -2.086803,-5.009942 1.534377,-4.519411 6.434329,-9.187696 10.684607,-10.17945 0.774685,-0.180764 0.802672,-0.131702 0.8,1.402349 l -0.0029,1.589667 -2.64,1.526858 c -2.818835,1.630291 -3.302524,2.43672 -1.963209,3.273136 0.559801,0.3496 0.643977,0.627869 0.486963,1.609792 -1.039162,6.49855 4.622649,13.212829 11.559433,13.708209 2.115744,0.15109 2.570374,0.29032 3.118611,0.95505 0.886925,1.07538 1.322844,0.79515 3.307408,-2.12616 2.493718,-3.67079 2.135823,-4.089457 -3.549207,-4.151886 -2.249702,-0.0247 -2.294211,0.0064 -2.169993,1.515556 0.07359,0.89406 -1.429546,0.76579 -3.750006,-0.31999 -1.768371,-0.82746 -1.781869,-0.78854 1.179993,-3.40276 l 2.539994,-2.241865 1.968515,0.612668 c 1.082685,0.33697 2.819689,0.612672 3.860006,0.612672 1.467993,0 1.891491,0.107472 1.891491,0.48 0,0.922164 1.218672,1.76 2.56,1.76 1.576921,0 1.585917,0.190304 0.13383,2.832055 -4.060559,7.38728 -12.942793,15.32427 -24.080827,21.51816 -4.160304,2.31355 -4.249885,2.3189 -2.481808,0.14818 z m 8.017663,-26.75994 c -0.287392,-0.555757 -0.601289,-1.773546 -0.697545,-2.706195 l -0.175015,-1.695732 1.08185,0.05174 1.081853,0.05173 0.16,-3.174448 c 0.150438,-2.984713 0.96,-5.07776 0.96,-2.481987 0,0.526295 0.640396,2.230295 1.4231,3.786669 l 1.423101,2.829766 -1.183101,1.227152 c -0.650704,0.674935 -1.716038,1.65344 -2.367404,2.174461 l -1.184307,0.947306 z M 59.571575,72.830743 C 58.53899,70.562846 55.672046,59.803582 55.113086,56.098615 c -0.07966,-0.528 -0.274122,-1.608 -0.432141,-2.4 -2.149574,-10.773808 -0.440752,-29.002766 3.685114,-39.311172 1.439123,-3.595625 1.548537,-3.51814 2.193289,1.55325 0.279846,2.201142 0.600454,4.649142 0.712467,5.44 0.538445,3.801609 0.585907,4.850687 0.346077,7.649364 -0.291392,3.400392 -0.234682,3.510072 1.853241,3.584203 4.172,0.148128 3.536589,1.446845 4.518627,-9.235645 0.117303,-1.276 0.300599,-2.316885 0.407325,-2.313079 0.106727,0.0038 2.117526,5.007806 4.468445,11.120001 2.350915,6.112192 4.543283,11.793955 4.871926,12.626141 1.603222,4.059645 -9.371542,3.231507 -14.357459,-1.083392 -1.416895,-1.226208 -1.575945,-1.173235 -3.507574,1.168195 l -1.67871,2.034851 1.67871,1.433098 c 4.11487,3.512829 11.615529,5.635177 16.23871,4.594825 3.012041,-0.677798 4.235913,-0.891392 4.365443,-0.761862 0.141084,0.141082 2.034556,5.276707 2.034556,5.518282 0,0.05716 -1.412617,0.108928 -3.139148,0.115046 -7.812045,0.02768 -14.444835,4.889466 -18.44111,13.517168 -0.950304,2.051651 -1.050537,2.160998 -1.359299,1.482854 z"
         id="path419" />
      <path
         style="display:inline;fill:#fdb330;stroke-width:0.32"
         d="m 71.311133,96.559793 c -1.32,-0.09835 -3.183251,-0.442976 -4.140563,-0.765834 l -1.74056,-0.587008 0.936234,-0.746528 0.936233,-0.746528 1.329632,1.304938 c 2.328717,2.285462 4.102697,0.559869 2.05016,-1.99424 -1.404349,-1.747526 -1.144416,-2.265011 1.020282,-2.031203 4.767062,0.514889 7.053558,-5.416282 3.033046,-7.867728 -2.998182,-1.828099 -6.421539,0.195837 -6.485885,3.834547 -0.04209,2.380093 -0.602416,2.69057 -2.118905,1.17408 -1.190835,-1.190835 -2.085875,-1.441472 -2.755674,-0.771674 -0.652988,0.652989 -0.264808,1.550362 0.576,2.656 1.354771,1.781483 1.765244,0.868786 0.03243,2.528928 l -0.927567,0.888666 -1.472432,-2.941325 c -1.613136,-3.22239 -1.787491,-4.376518 -0.859485,-5.689225 0.33712,-0.476874 1.072137,-2.739044 1.633373,-5.027044 4.315273,-17.59223 16.967618,-23.450505 27.856635,-12.89815 10.010413,9.700912 3.586476,25.298845 -11.382956,27.638902 -3.68817,0.576544 -4.568877,0.874951 -4.889351,1.656647 -0.200937,0.490128 -0.539814,0.539565 -2.630649,0.383779 z m 0.182858,-8.804035 c -0.848026,-0.848023 -0.2452,-2.377143 0.937142,-2.377143 0.560288,0 1.44,0.879712 1.44,1.44 0,0.560288 -0.879712,1.44 -1.44,1.44 -0.238858,0 -0.660573,-0.226284 -0.937142,-0.502857 z m 59.427699,0.01453 c -0.2941,-0.0072 -2.00605,-0.161437 -4.38205,-0.287075 -2.376,-0.125638 -4.53838,-0.141046 -4.56829,-0.164521 -0.16325,-0.128169 0.12135,-6.428323 0.28271,-6.589657 0.62297,-0.62297 9.46177,5.20586 10.54669,6.9613 0.18898,0.305764 -0.80253,0.106197 -1.20517,0.09638 z m -82.857077,-6.39751 c -0.786797,-2.050368 0.448765,-9.918995 2.122045,-13.51416 1.190761,-2.558432 0.994342,-2.75224 2.72318,2.68695 l 1.489741,4.686951 -1.882992,1.953049 c -1.035648,1.074176 -2.417606,2.568851 -3.071024,3.321498 -0.922915,1.063075 -1.231081,1.256262 -1.38095,0.865712 z m 78.446517,-22.23831 c -1.056,-0.133648 -3.35801,-0.37413 -5.12,-0.456422 -4.34136,-0.202758 -3.02426,0.732874 -4.63496,-3.539431 -0.59538,-1.579208 -1.29825,-3.709402 -1.81621,-4.60919 -0.78832,-1.36944 -0.71398,-1.77233 -0.66124,-1.825062 0.66207,-0.243694 4.62333,1.56062 6.78727,2.695552 3.51264,1.842288 10.61167,8.073107 7.76514,8.018124 -0.22109,-0.0043 -1.264,-0.149926 -2.32,-0.283571 z"
         id="path417"
         sodipodi:nodetypes="sscccssssssssscsscssssssssssssccsssssscssssssscsss" />
      <path
         style="display:inline;fill:#328cd6;stroke-width:0.32"
         d="M 103.66158,111.85862 C 95.376338,90.53755 95.062191,89.322468 95.502104,88.553419 c 0.188858,-0.330158 0.329234,-0.63696 0.396729,-0.768993 0.06392,-0.12504 0.226158,-0.40978 0.490305,-0.780614 1.67838,-2.356266 3.204966,-9.043693 2.462,-12.889773 -1.196151,-6.192035 -7.970093,-13.664208 -14.067462,-15.517475 -0.985901,-0.299657 -1.837574,-0.573312 -1.892608,-0.608121 -0.05504,-0.03481 -0.508976,-1.194263 -1.008752,-2.57656 -0.499776,-1.382298 -0.995449,-2.729268 -1.101494,-2.993268 -0.138234,-0.34414 0.328435,-0.751721 1.648752,-1.44 3.499721,-1.824396 6.194979,-4.120592 8.075699,-6.88 1.17958,-1.730697 3.845859,-6.779699 3.845859,-7.282726 0,-0.262691 -4.797936,-2.747027 -4.969507,-2.573174 -0.05205,0.05275 -0.766893,1.3919 -1.588531,2.9759 -1.548708,2.98568 -2.977309,5.017962 -4.235018,6.024583 -0.401718,0.321523 -0.915702,0.753523 -1.142185,0.96 -0.840781,0.766521 -3.716314,2.270531 -3.930858,2.055984 -0.04831,-0.04831 -2.347686,-5.918199 -5.109727,-13.044199 l -5.021898,-12.956368 0.297373,-3.751844 c 0.368205,-4.645492 0.156,-4.48924 3.701603,-2.725594 17.645343,8.777108 33.974726,27.308712 39.869416,45.246299 4.50927,13.721754 5.01909,21.000576 3.09525,44.191144 -0.25727,3.10119 -0.4495,5.74086 -0.64666,8.88 -0.0995,1.584 -0.24108,3.312 -0.31465,3.84 -0.0736,0.528 -0.23175,2.616 -0.35151,4.64 -0.11976,2.024 -0.25968,3.896 -0.31094,4.16 -0.0513,0.264 -0.10421,0.95311 -0.11768,1.53137 -0.0226,0.9693 -1.87155,2.30863 -3.18714,2.30863 -0.12628,0 -3.15338,-7.524 -6.72689,-16.72 z M 82.684371,34.217124 c 5.625929,-2.555506 3.824044,-10.599235 -2.385123,-10.647331 -2.223728,-0.01723 -4.08696,1.271644 -5.028704,3.478544 -1.959994,4.593085 2.848413,9.242566 7.413827,7.168787 z M 39.651452,127.55539 C 34.02966,124.77271 27.305049,112.77544 23.633823,98.978615 c -0.749315,-2.816 -2.729137,-9.944 -4.399605,-15.84 l -3.037214,-10.72 0.36217,-2.88 c 0.369473,-2.938076 1.232967,-8.722016 1.48893,-9.973296 0.116681,-0.570396 0.836889,-0.924924 4.062897,-2 4.898134,-1.63231 4.483819,-1.693296 5.550728,0.817047 l 0.902606,2.123747 -1.25447,1.05319 c -1.355393,1.137924 -1.758729,1.143524 -1.758729,0.02443 0,-1.005222 -0.591615,-1.485114 -1.830861,-1.485114 -1.553797,0 -1.882468,0.919687 -1.444381,4.041671 0.332207,2.367443 0.31649,2.491053 -0.467339,3.675501 -2.313682,3.496208 1.060173,4.584752 3.652554,1.178464 2.22284,-2.920727 6.605818,-6.966509 7.057649,-6.514679 0.07998,0.07998 -0.739949,1.320403 -1.822071,2.75649 -2.063215,2.738096 -2.891127,4.175792 -3.513395,6.101139 -0.447655,1.385075 -2.774352,3.830557 -5.006026,5.261597 -3.764291,2.413814 -2.644008,5.702582 1.209618,3.551024 0.876052,-0.489117 1.618098,-0.844733 1.648992,-0.790256 0.03089,0.05448 0.336619,0.955776 0.679389,2.002886 1.60241,4.895117 3.768958,7.214247 11.802993,12.634227 3.362083,2.268154 7.10624,5.000967 8.320349,6.072917 2.112963,1.86557 3.206982,2.32656 3.8931,1.64044 0.198093,-0.19809 0.85249,0.80438 1.827792,2.8 3.251744,6.6536 2.488304,12.99637 -2.277405,18.92102 -0.908028,1.12884 -1.65096,2.15013 -1.65096,2.26954 0,0.36898 -4.94182,2.55803 -5.774214,2.55776 -0.432182,-1.4e-4 -1.424643,-0.31647 -2.205468,-0.70297 z"
         id="path415"
         sodipodi:nodetypes="sssssssssssssssssscssssssscssssssscsscsssscssssssssssssssssssssc" />
      <path
         style="display:inline;fill:#394b62;stroke-width:0.32"
         d="m 93.465996,156.81862 c 0.3083,-5.99574 1.751436,-8.58055 8.819554,-15.7968 l 5.21441,-5.32369 4.75508,-1.83331 c 4.27292,-1.64741 4.92853,-1.81521 6.46559,-1.65477 0.94077,0.0982 3.8705,0.26648 6.5105,0.37397 8.84196,0.36002 13.06098,1.9028 16.79056,6.13982 2.01157,2.28526 1.94651,2.33418 -3.11056,2.33877 -6.97173,0.006 -21.89907,0.33308 -23.02563,0.504 -0.94292,0.14306 -3.10715,1.8857 -10.65437,8.57889 -0.616,0.54629 -2.776,2.43134 -4.8,4.18899 -2.023999,1.75765 -4.255999,3.73606 -4.959999,4.39648 -2.013545,1.88888 -2.191849,1.71882 -2.005135,-1.91235 z"
         id="path413" />
      <path
         style="display:inline;fill:#010102;stroke-width:0.32"
         d="m 90.40334,167.0363 c -1.626938,-1.79774 -2.616234,-7.63572 -2.069571,-12.21285 0.742281,-6.21503 2.847574,-9.96227 9.277132,-16.51253 l 4.738739,-4.82769 -1.51925,-1.41231 c -0.835595,-0.77677 -3.103259,-2.8523 -5.039259,-4.6123 -1.935999,-1.76 -3.591999,-3.27336 -3.679999,-3.36302 -0.088,-0.0897 -2.464,-2.24791 -5.28,-4.79612 -2.816,-2.5482 -5.84,-5.2999 -6.72,-6.11489 -2.956921,-2.73847 -4.020172,-3.57251 -4.250748,-3.33441 -9.662175,9.97774 -28.93324,22.27795 -34.247313,21.85916 -8.273568,-0.65202 -16.79166,-13.86346 -22.134785,-34.330725 -0.735137,-2.816 -2.616526,-9.614035 -4.180865,-15.106742 l -2.844253,-9.986742 0.596853,-3.773258 c 0.328269,-2.075293 0.857053,-5.486032 1.175074,-7.579424 0.333503,-2.195296 0.787258,-4.054304 1.072131,-4.392464 0.567653,-0.67383 11.19624,-4.44137 12.52953,-4.44137 1.054233,0 1.084786,0.04225 2.545758,3.52 l 1.142647,2.72 1.417987,0.174682 c 4.4564,0.548982 4.859491,3.25671 1.201837,8.073213 -2.298518,3.026752 -3.463849,4.973721 -3.463849,5.7872 0,0.253325 -0.519258,1.231062 -1.153906,2.172749 -2.78787,4.13662 0.174162,9.881779 7.691985,14.919379 5.268867,3.530601 4.638541,3.469785 5.835059,0.562973 l 0.983705,-2.389802 -0.606204,-2.490198 c -1.997539,-8.205591 -0.554119,-15.696592 4.740838,-24.603815 1.667462,-2.805024 1.720825,-2.966041 1.431705,-4.32 -2.997971,-14.039581 -0.856732,-34.30857 4.923229,-46.6033364 1.750675,-3.7239274 1.864016,-3.782928 6.4151,-3.3394781 2.875094,0.2801443 3.557139,0.2595731 4.104477,-0.1237962 1.052278,-0.7370445 2.157846,-0.5505113 5.812662,0.9807213 12.355337,5.1764274 24.006424,14.5263484 34.322844,27.5438604 0.40784,0.514605 1.52729,2.108884 2.48768,3.542836 2.17579,3.248656 1.61551,2.872649 7.49082,5.027059 11.41938,4.18735 16.44438,8.180713 20.60864,16.377667 2.82203,5.554906 1.54744,6.745955 -5.72864,5.353162 -1.936,-0.370589 -5.068,-0.776989 -6.96,-0.903108 l -3.44,-0.229308 v 0.776438 c 0,0.427043 0.20016,1.562694 0.4448,2.52367 0.24465,0.96098 0.62531,2.990292 0.84593,4.509584 l 0.40112,2.762352 2.43407,1.054381 c 8.61468,3.731658 14.96574,9.32232 16.83393,14.818426 1.15346,3.39344 -0.37625,4.20191 -6.20098,3.27728 -5.34353,-0.84824 -12.34916,-1.368263 -12.61603,-0.936477 -0.091,0.147216 -0.2671,1.433261 -0.39137,2.857875 l -0.22595,2.590211 2.13516,0.171389 c 2.65933,0.213466 2.54166,0.05903 2.26823,2.977036 l -0.22899,2.4436 -2.09583,-0.21388 c -3.05567,-0.31183 -2.44627,-0.84536 -2.63919,2.43411 l -0.005,1.79865 2.26072,0.22277 c 2.23916,0.22064 2.25916,0.23095 2.09694,1.08134 -0.0901,0.47222 -0.25926,1.63163 -0.37596,2.57646 l -0.21217,1.71788 -2.17672,-0.21449 -2.17673,-0.21449 -0.10804,2.13803 c -0.14539,2.87712 -0.65638,2.2644 2.62363,2.62866 l 2.03991,0.22654 -0.0762,1.76 c -0.18389,4.22575 -0.0702,3.3891 -2.66217,3.19652 -1.41137,-0.10487 -2.30587,-0.0453 -2.36486,0.1574 -0.0522,0.17934 -0.17863,1.14117 -0.28101,2.1374 l -0.18615,1.81132 2.63943,0.1759 c 1.45168,0.0967 4.65786,0.31082 7.12484,0.47573 9.25433,0.6186 15.82756,4.47172 20.09859,11.78145 1.91653,3.28008 2.15557,4.4779 1.12878,5.65625 -0.99119,1.13748 -0.16424,1.06569 -15.15279,1.31555 -19.50996,0.32523 -18.20277,0.0706 -22.24,4.33209 -0.088,0.0929 -1.816,1.60506 -3.84,3.36039 -2.024,1.75532 -3.752,3.26849 -3.84,3.3626 -0.088,0.0941 -2.32,2.0373 -4.959996,4.3182 -2.639999,2.2809 -5.231999,4.54515 -5.759999,5.03166 -1.154768,1.06404 -2.968787,1.21021 -3.787792,0.30522 z m 5.067791,-8.30533 c 0.704,-0.66042 2.936,-2.63883 4.959999,-4.39648 2.024,-1.75765 4.184,-3.6427 4.8,-4.18899 7.54722,-6.69319 9.71145,-8.43583 10.65437,-8.57889 1.12656,-0.17092 16.0539,-0.49766 23.02563,-0.504 5.05707,-0.005 5.12213,-0.0535 3.11056,-2.33877 -3.72958,-4.23702 -7.9486,-5.7798 -16.79056,-6.13982 -2.64,-0.10749 -5.56973,-0.27578 -6.5105,-0.37397 -1.53706,-0.16044 -2.19267,0.007 -6.46559,1.65477 l -4.75508,1.83331 -5.21441,5.32369 c -7.068118,7.21625 -8.511254,9.80106 -8.819554,15.7968 -0.186714,3.63117 -0.0084,3.80123 2.005135,1.91235 z m 16.639999,-30.42364 c 1.8222,-0.71023 1.79707,-0.63683 2.20732,-6.44871 0.96958,-13.73581 1.49031,-20.8804 1.62095,-22.240005 0.67649,-7.040198 0.89185,-19.6243 0.40929,-23.916428 -2.5662,-22.82496 -15.77933,-44.001942 -35.93814,-57.59885 -3.854777,-2.600009 -11.203241,-6.483944 -11.46534,-6.059858 -0.247491,0.400447 -0.443894,1.819891 -0.671795,4.855136 -0.112327,1.496 -0.257354,2.936 -0.322282,3.2 -0.06493,0.264 -0.208928,1.704 -0.32,3.2 -0.111072,1.496 -0.255072,2.936 -0.32,3.2 -0.06493,0.264 -0.214483,1.704 -0.332342,3.2 -0.117859,1.496 -0.235623,2.744324 -0.261696,2.774055 -0.02608,0.02973 -1.127078,-0.04227 -2.446682,-0.16 l -2.399279,-0.214055 0.04775,-1.28 c 0.182067,-4.880181 0.07943,-6.805597 -0.673805,-12.64 -0.834409,-6.463156 -1.053376,-7.325338 -1.750915,-6.894235 -1.101987,0.681066 -3.946953,9.707894 -4.946316,15.694235 -0.264432,1.584 -0.572586,3.384 -0.684781,4 -1.720067,9.443834 0.526883,28.17161 4.866368,40.56 1.366787,3.901911 1.044745,3.791738 2.338457,0.8 5.539974,-12.811305 17.670399,-17.905472 27.322207,-11.473945 15.886121,10.585789 13.090121,28.675501 -5.63897,36.483331 -0.699891,0.291773 -1.2,0.720371 -1.2,1.028413 0,0.290483 -0.639699,1.878566 -1.421552,3.529076 l -1.421551,3.00093 0.723775,0.7161 c 1.203303,1.19053 10.923654,10.08269 18.119327,16.57552 2.024,1.8263 4.878182,4.43077 6.342612,5.78771 l 2.66262,2.46716 1.97738,-0.76098 c 1.08757,-0.41854 2.69739,-1.04161 3.57739,-1.3846 z M 67.951133,52.149646 c -2.76438,-0.842103 -4.045702,-1.440458 -6.143139,-2.868749 -3.251939,-2.21447 -3.270566,-2.267088 -1.511548,-4.269331 0.827676,-0.942122 1.542425,-1.7588 1.588332,-1.814839 0.04591,-0.05604 0.781616,0.434045 1.634912,1.089076 5.641062,4.330348 13.196038,4.425846 19.021813,0.240444 2.182442,-1.567929 3.616122,-3.391878 5.427712,-6.905206 l 1.607526,-3.117574 2.227197,1.121596 c 1.224957,0.61688 2.227194,1.195383 2.227194,1.285565 0,0.373082 -2.398794,4.905853 -3.389005,6.403882 -2.695328,4.077584 -6.305289,6.755133 -11.650994,8.641673 -2.292989,0.809216 -8.652806,0.920663 -11.04,0.193463 z M 78.167037,33.870555 c -2.063444,-1.049847 -2.855904,-2.356361 -2.855904,-4.708474 0,-6.658486 9.683164,-7.131134 10.319973,-0.503732 0.391485,4.07425 -3.862329,7.044714 -7.464069,5.212206 z M 45.231135,127.23067 c 13.6943,-5.9875 26.897531,-16.81456 31.669786,-25.97022 1.504324,-2.886081 1.486167,-3.220551 -0.160547,-2.957233 -1.678918,0.26847 -2.549241,-0.201533 -2.549241,-1.376678 0,-1.261338 0.480525,-1.551805 3.217632,-1.945005 16.9522,-2.435277 23.743965,-18.892736 12.03326,-29.158384 -10.6412,-9.328115 -22.931308,-3.353655 -27.062213,13.155465 -0.550483,2.2 -1.141802,4.433152 -1.314038,4.962564 -0.878688,2.700825 -3.420419,1.682387 -3.022467,-1.211063 l 0.211766,-1.539741 -0.911968,0.19945 c -5.059337,1.106502 -10.274217,6.182429 -11.804809,11.490262 l -0.548317,1.901476 1.08058,0.943961 c 4.319855,3.773712 4.900255,4.750696 3.432867,5.778496 -0.796036,0.55756 -1.860564,0.1693 -2.993047,-1.09163 C 45.528936,99.319623 42.78932,97.290148 37.871135,94.012532 29.510951,88.441073 27.509727,86.314641 25.892199,81.284119 l -0.740297,-2.302323 -1.518031,0.826215 c -1.627925,0.886028 -2.782851,0.921104 -3.297175,0.100134 -0.559367,-0.892867 0.001,-2.039181 1.374183,-2.810934 2.670354,-1.500823 5.004782,-4.042823 5.925545,-6.452436 0.531734,-1.391529 1.681073,-3.31303 3.062909,-5.120665 2.827988,-3.699399 2.93873,-4.260336 0.509459,-2.580515 -1.374671,0.950572 -4.609592,4.242476 -6.649687,6.766822 -1.964566,2.430886 -4.353915,0.632502 -2.541451,-1.912867 0.60911,-0.855418 0.649946,-1.213011 0.455085,-3.985133 l -0.21407,-3.045392 0.825827,-0.376272 c 1.34849,-0.614413 1.890451,-0.187248 2.598255,2.047907 0.230225,0.727021 2.733045,-1.178598 2.742616,-2.088198 0.0066,-0.631882 -1.188678,-3.797159 -1.588993,-4.207722 -0.243143,-0.249369 -8.178003,2.153687 -8.703275,2.635767 -0.11992,0.11006 -0.441753,1.712108 -0.715183,3.560108 -0.273431,1.848 -0.715421,4.815946 -0.982199,6.595437 l -0.485053,3.235437 2.377761,8.284563 c 1.307768,4.556509 3.262277,11.596563 4.343352,15.644563 3.849544,14.414305 7.579537,22.481745 13.154558,28.451425 3.823565,4.09424 5.245024,4.49939 9.4048,2.68063 z m 22.996251,-21.55391 c -0.391744,-0.59788 -0.726803,-0.7746 -1.229427,-0.64845 -5.82496,1.46197 -13.023497,-5.127147 -13.168873,-12.054008 -0.05115,-2.437376 -0.157568,-2.945024 -0.728925,-3.477325 -0.961513,-0.895786 -0.872944,-1.069542 1.170973,-2.297219 4.723667,-2.837271 4.88,-2.787971 4.88,1.538857 0,3.289709 -0.34817,4.029959 -1.584291,3.368407 -1.262679,-0.675763 -1.257869,1.544275 0.0096,4.432326 l 0.614736,1.400733 1.519977,-1.375258 c 0.835984,-0.75639 2.429082,-2.223187 3.540211,-3.259548 l 2.020237,-1.884292 -1.140237,-1.262105 c -1.259853,-1.394509 -1.386841,-1.927943 -0.637379,-2.677405 0.774377,-0.774378 1.393549,-0.609059 2.583174,0.689709 1.410566,1.539981 2.252502,1.214041 2.088589,-0.808557 -0.378621,-4.671974 5.811171,-6.686803 8.000652,-2.604278 1.709232,3.187043 -0.843277,6.766649 -4.440438,6.227222 -2.248253,-0.337146 -2.608502,0.233158 -1.218669,1.929264 2.214064,2.701974 0.393392,4.315242 -2.110592,1.870166 l -1.181408,-1.153616 -3.312083,3.100589 c -1.821644,1.705325 -3.357503,3.22472 -3.41302,3.376428 -0.171056,0.46746 2.456083,1.61506 4.158979,1.81674 l 1.614272,0.19119 -0.214893,-0.9784 c -0.285997,-1.302127 -0.129526,-1.356115 3.288457,-1.13467 4.344899,0.28149 4.413123,0.39908 2.168519,3.73792 -1.985757,2.95379 -2.436573,3.21998 -3.278144,1.93558 z M 73.25217,87.927358 c 1.198969,-0.641671 0.584636,-2.548743 -0.821037,-2.548743 -1.347568,0 -1.903677,1.410612 -0.937142,2.377143 0.589673,0.589673 0.917257,0.621645 1.758179,0.1716 z M 132.251,86.956587 c -2.15806,-2.254864 -8.50121,-6.377972 -9.81212,-6.377972 -0.48627,0 -0.9727,6.704848 -0.48775,6.722992 2.49938,0.09352 7.44591,0.502065 7.57333,0.520202 0.45132,0.06424 0.92828,0.116806 1.89987,0.116806 h 1.76654 z m -80.686819,-8.505136 3.064876,-3.247162 -1.059318,-3.152838 c -0.582627,-1.734058 -1.248381,-3.908836 -1.479459,-4.832836 -0.548576,-2.19358 -0.757962,-2.127952 -2.077802,0.651258 -1.676048,3.529283 -2.691971,9.640275 -2.154972,12.962624 0.219161,1.355907 0.118432,1.420611 3.706675,-2.381046 z M 129.55113,59.16795 c 0,-2.203437 -7.83244,-8.185197 -13.0829,-9.991619 -2.50593,-0.862167 -2.72639,-0.815956 -2.07908,0.435801 0.29395,0.568432 1.2222,2.836432 2.06278,5.04 l 1.52833,4.006483 4.10004,0.230906 c 2.25503,0.126995 4.31847,0.290291 4.58544,0.362877 0.94954,0.258176 2.88539,0.201517 2.88539,-0.08445 z"
         id="path411"
         sodipodi:nodetypes="csscssssscssscssssscsssssscssssssssssssscssscssssscsscsccssscccssccsssccsssssssssccsscscsssccsssssssssssssssscsssscsssssscssscssssssssscsssssssssssssssssscsscssssscsscsssssscsscsssscsssssssssssscsscsssssssscssscsssssssssssssscsscssssssssscssss" />
    </g>
    <g
       inkscape:groupmode="layer"
       id="layer3"
       inkscape:label="testo">
      <text
         xml:space="preserve"
         style="display:inline;writing-mode:vertical-lr;direction:ltr;fill:#000000"
         x="117.04819"
         y="55.059971"
         id="text288"
         transform="translate(0.5005223,0.42723021)"
         inkscape:label="text288"><tspan
           sodipodi:role="line"
           id="tspan286"
           x="0"
           y="0" /></text>
      <g
         aria-label="Tonni Tosti"
         id="text180"
         style="font-size:16px;letter-spacing:0.74px;word-spacing:-4.45px;writing-mode:vertical-lr;white-space:pre;display:inline">
        <path
           d="m 102.76903,45.992944 q -0.12949,0.08744 -0.22568,-0.05499 -0.16614,-0.246029 -1.21892,-2.014397 -1.664278,1.067329 -2.311724,1.504553 -0.763987,0.515924 -2.259085,1.610414 -1.490726,1.100965 -2.254713,1.616889 -0.123015,0.08307 -0.194737,0.04666 -0.02607,-0.01068 -0.154795,-0.159424 -0.31413,-0.35349 -0.82131,-1.104528 -0.564018,-0.835206 -0.739579,-1.206856 -0.09005,-0.203146 0.07829,-0.316825 0.763987,-0.515924 2.335683,-1.483027 1.571696,-0.967103 2.335683,-1.483027 0.505008,-0.341035 2.218136,-1.573335 -1.003937,-1.207448 -1.524233,-1.977909 -0.06996,-0.103592 -0.0052,-0.147314 0.08417,-0.05684 0.559745,-0.24602 0.523168,-0.202465 0.62903,-0.2551 0.317416,-0.186071 0.639205,-0.365669 0.516189,-0.282596 0.590519,-0.17253 0.009,0.01295 0.0547,0.09501 0.57234,1.140681 1.95833,3.193086 0.39351,0.582702 1.5746,2.06645 0.63314,0.797958 0.63751,0.804433 0.0874,0.129489 0.0811,0.162029 1.7e-4,0.02817 -0.10553,0.10897 -0.17481,0.118051 -0.49433,0.314969 -0.35189,0.21878 -0.49433,0.314969 -0.16186,0.109306 -0.45287,0.362392 -0.28017,0.255189 -0.43556,0.360123 z"
           style="letter-spacing:-0.26px"
           id="path235" />
        <path
           d="m 103.051,55.478115 q -1.50596,0.95128 -3.02801,0.61903 -1.517866,-0.325644 -2.464974,-1.825 -0.917901,-1.45312 -0.585652,-2.975162 0.332249,-1.522042 1.785369,-2.439944 1.532377,-0.967969 3.050947,-0.670484 1.52517,0.293312 2.49314,1.825693 0.94293,1.492751 0.58913,3.009927 -0.3472,1.513005 -1.83995,2.45594 z m -1.36851,-2.16647 q 0.5218,-0.32961 0.71367,-0.903597 0.19846,-0.578158 -0.12697,-1.093355 -0.32961,-0.521803 -0.95192,-0.599981 -0.58336,-0.07505 -1.11177,0.25873 -0.53501,0.337955 -0.717836,0.896991 -0.19673,0.595541 0.13288,1.117344 0.325438,0.515197 0.947736,0.593375 0.5792,0.06845 1.11421,-0.269507 z"
           style="letter-spacing:-0.26px"
           id="path237" />
        <path
           d="m 102.8943,64.995566 q -0.19248,0.08629 -0.31048,-0.100536 -0.11801,-0.186826 -0.49512,-1.028038 -0.40269,-0.898242 -0.45579,-1.131285 -0.0531,-0.233043 0.19641,-0.344899 0.33506,-0.150208 1.02189,-0.432432 0.68684,-0.282223 1.02902,-0.435627 0.26377,-0.118248 0.77779,-0.365807 0.52115,-0.250754 0.78492,-0.369002 0.97666,-0.437839 0.59635,-1.286179 -0.12464,-0.278028 -0.53321,-0.540071 -0.44987,-0.277774 -0.71364,-0.159526 l -3.84961,1.725787 q -0.23526,0.105464 -0.36284,-0.102748 -0.14038,-0.236729 -0.48553,-1.006651 -0.373924,-0.834083 -0.443007,-1.10277 -0.06343,-0.236976 0.136181,-0.326461 0.556056,-0.24928 1.678486,-0.743908 1.12244,-0.494627 1.68562,-0.747103 1.7751,-0.79578 2.66277,-1.527625 0.0578,-0.04302 0.10054,-0.0622 0.11406,-0.05113 0.20477,0.03662 0.25125,0.42675 0.69375,1.127348 0.72915,1.034423 0.79306,1.177002 0.0352,0.07842 -0.43043,0.338512 -0.45846,0.256899 -0.42331,0.335317 -0.0351,-0.07842 0.83386,0.542277 0.87933,0.624627 1.16377,1.2591 0.40588,0.905372 0.24979,1.703083 -0.18828,0.897764 -1.06514,1.29086 l -2.27412,1.019492 q -0.46338,0.207734 -1.38694,0.63033 -0.91643,0.4194 -1.37981,0.627133 z"
           style="font-family:'Berlin Sans FB Demi';-inkscape-font-specification:'Berlin Sans FB Demi'"
           id="path239" />
        <path
           d="m 105.25438,74.020192 q -0.20069,0.06496 -0.29778,-0.13354 -0.0971,-0.198497 -0.38098,-1.075574 -0.30312,-0.93654 -0.3307,-1.17396 -0.0276,-0.237421 0.23257,-0.321623 0.34935,-0.113072 1.06269,-0.319323 0.71333,-0.206251 1.07011,-0.321729 0.27502,-0.08901 0.8128,-0.279502 0.54522,-0.192894 0.82024,-0.281908 1.0183,-0.329593 0.73201,-1.214103 -0.0938,-0.289881 -0.47164,-0.594593 -0.41717,-0.32482 -0.69219,-0.235806 l -4.01374,1.299124 q -0.24529,0.07939 -0.3496,-0.141404 -0.11393,-0.250527 -0.37376,-1.053276 -0.28147,-0.869644 -0.32108,-1.144228 -0.0374,-0.242448 0.17071,-0.30981 0.57976,-0.187651 1.74912,-0.557927 1.16937,-0.370275 1.75656,-0.560332 1.85078,-0.599041 2.81242,-1.230544 0.0621,-0.03652 0.10669,-0.05095 0.11892,-0.03849 0.19961,0.05857 0.20359,0.45143 0.56769,1.195793 0.61294,1.107245 0.66105,1.255902 0.0265,0.08176 -0.46453,0.289952 -0.48357,0.205785 -0.4571,0.287546 -0.0265,-0.08176 0.77028,0.629317 0.80659,0.716104 1.02071,1.377629 0.30553,0.943972 0.064,1.720112 -0.28432,0.872121 -1.19856,1.168032 l -2.37108,0.767446 q -0.48314,0.156376 -1.447,0.476561 -0.95643,0.317779 -1.43957,0.474155 z"
           style="letter-spacing:1.7px"
           id="path241" />
        <path
           d="m 114.63126,75.253978 q -1.32056,0.322513 -1.68385,-1.165017 -0.1557,-0.637514 0.0763,-1.136488 0.25308,-0.544335 0.87541,-0.696324 0.59198,-0.144575 1.08637,0.233295 0.45476,0.347336 0.60304,0.954491 0.14458,0.591976 -0.10647,1.11169 -0.26641,0.555632 -0.8508,0.698353 z m -5.68714,1.179841 q -0.55403,0.135308 -1.64894,0.426837 -1.08732,0.289675 -1.63376,0.423129 -0.15938,0.03892 -0.23607,-0.143398 -0.10856,-0.24692 -0.32913,-1.150064 -0.22242,-0.910733 -0.23991,-1.179895 -0.0104,-0.174382 0.0486,-0.22901 0.0267,-0.02259 0.22398,-0.07079 0.52367,-0.127893 1.57657,-0.360911 1.0605,-0.234871 1.59176,-0.364617 2.1554,-0.526401 3.38965,-1.00476 0.11772,-0.04483 0.15567,-0.0541 0.15179,-0.03707 0.20183,0.167845 0.0519,0.212504 0.11201,0.656223 0.062,0.451309 0.11572,0.671403 0.0538,0.220093 0.19921,0.651013 0.14545,0.43092 0.1992,0.651014 0.0445,0.182147 -0.1073,0.219217 -0.0304,0.0074 -0.14791,0.02004 -1.52072,0.194469 -3.4712,0.670824 z"
           style="letter-spacing:1.7px"
           id="path243" />
        <path
           d="m 113.68517,89.232378 q -0.15625,5.66e-4 -0.15688,-0.171307 -0.001,-0.296873 0.10866,-2.351973 -1.97672,-0.0397 -2.75797,-0.03687 -0.92187,0.0033 -2.77316,0.08037 -1.85127,0.08484 -2.77314,0.08819 -0.14843,5.39e-4 -0.18775,-0.06963 -0.0157,-0.02338 -0.0399,-0.218607 -0.0642,-0.46852 -0.0675,-1.374764 -0.004,-1.007806 0.0574,-1.41428 0.0383,-0.21889 0.2414,-0.219627 0.92187,-0.0033 2.76589,0.06809 1.84402,0.07144 2.76589,0.06809 0.60937,-0.0022 2.7185,-0.07236 -0.16192,-1.561923 -0.16529,-2.491604 -4.5e-4,-0.124999 0.0777,-0.125283 0.10156,-3.68e-4 0.60196,0.107192 0.54732,0.123015 0.66457,0.138215 0.36727,0.02211 0.73457,0.05202 0.58613,0.05256 0.58661,0.185373 6e-5,0.01563 -0.007,0.109403 -0.15947,1.266212 -0.15048,3.742758 0.003,0.70312 0.15785,2.593194 0.0818,1.015335 0.0818,1.023148 5.7e-4,0.156249 -0.0228,0.179771 -0.0155,0.02349 -0.14832,0.03179 -0.21094,7.66e-4 -0.58599,-0.0135 -0.41412,-0.01412 -0.586,-0.0135 -0.19531,7.09e-4 -0.57795,0.04897 -0.3748,0.05605 -0.56229,0.05673 z"
           style="letter-spacing:-0.55px"
           id="path245" />
        <path
           d="m 109.92243,97.047577 q -1.77814,0.105322 -2.95024,-0.920919 -1.17165,-1.018443 -1.2765,-2.788777 -0.10163,-1.715743 0.92461,-2.887849 1.02624,-1.172105 2.74198,-1.273731 1.80933,-0.10717 2.99519,0.886952 1.19365,0.99366 1.30082,2.802989 0.1044,1.762536 -0.93836,2.919967 -1.03497,1.15697 -2.7975,1.261368 z m -0.15152,-2.558017 q 0.61611,-0.03649 1.0614,-0.446352 0.4531,-0.410321 0.41707,-1.01863 -0.0365,-0.616107 -0.54358,-0.985207 -0.47451,-0.347552 -1.09841,-0.310597 -0.63171,0.03742 -1.06187,0.438553 -0.45997,0.426381 -0.42347,1.042489 0.036,0.608308 0.54311,0.977409 0.47405,0.339752 1.10575,0.302335 z"
           style="letter-spacing:1.17px"
           id="path247" />
        <path
           d="m 111.85241,102.33853 q -0.078,-0.004 -0.20503,-0.12724 0.0652,-0.21585 0.0757,-0.43435 0.0223,-0.4604 -0.16553,-0.78234 -0.21599,-0.38589 -0.64518,-0.40664 -0.27311,-0.0132 -0.71374,0.36439 -0.66113,0.57029 -0.88642,0.70019 -0.6123,0.36929 -1.29119,0.33646 -0.39798,-0.0192 -0.83522,-0.19682 -0.48294,-0.20325 -0.69603,-0.48731 -0.47149,-0.6016 -0.77748,-1.390735 -0.31858,-0.85232 -0.28462,-1.554624 0.008,-0.156068 0.87672,-0.661552 0.87661,-0.497303 1.06389,-0.488247 0.0702,0.0034 0.0817,0.08999 0.075,0.551143 0.14968,1.110088 0.18529,0.697263 0.68471,0.721413 0.34334,0.0166 0.81518,-0.359484 0.82248,-0.671996 0.87081,-0.700945 0.58109,-0.370804 1.20536,-0.340617 1.17051,0.0566 1.93251,1.282336 0.6744,1.096349 0.61591,2.305879 -0.006,0.12485 -0.87258,0.57571 -0.85873,0.45124 -0.99919,0.44445 z"
           style="letter-spacing:0.32px"
           id="path249" />
        <path
           d="m 106.97636,108.69672 q -0.23332,-0.0222 -0.70182,-0.12957 -0.46924,-0.0996 -0.69479,-0.12104 -0.21776,-0.0207 -0.27554,-0.0733 -0.0578,-0.0526 -0.15446,-0.27367 -0.45673,-1.05583 -0.34054,-2.27687 0.21388,-2.24766 1.93267,-2.08411 0.51331,0.0488 1.53622,0.18541 1.03069,0.13732 1.544,0.18616 0.3422,0.0326 0.37995,-0.36408 0.003,-0.0311 0.01,-0.10111 -0.001,-0.0707 0.002,-0.10185 0.0281,-0.29554 0.23811,-0.27555 0.12444,0.0118 0.37961,0.0518 0.25444,0.0478 0.37887,0.0596 0.16333,0.0155 0.49998,0.024 0.3359,0.0163 0.49923,0.0318 0.15554,0.0148 0.12374,0.51403 -0.0189,0.28073 0.12668,0.31812 0.2911,0.0748 0.93033,0.11991 1.00624,0.0644 0.95957,0.0599 0.90218,0.0859 0.8859,0.25695 -0.02,0.20999 -0.15032,0.58998 -0.14328,0.43368 -0.17512,0.60331 -0.0922,0.39146 -0.26174,1.18365 -0.034,0.19296 -0.15071,0.18185 -0.3111,-0.0296 -0.93589,-0.14398 -0.62552,-0.10661 -0.94439,-0.13695 -0.3811,-0.0363 -0.40256,0.18928 -0.0259,0.27221 -0.0551,0.82662 -0.0292,0.55441 -0.0558,0.8344 -0.0163,0.1711 -0.13295,0.16 -0.17887,-0.017 -0.53293,-0.09 -0.35406,-0.0729 -0.53294,-0.09 -0.18666,-0.0178 -0.54516,-0.044 -0.3585,-0.0263 -0.54515,-0.044 -0.16333,-0.0155 -0.14187,-0.24109 0.0148,-0.15555 0.0574,-0.52034 0.0503,-0.36406 0.0651,-0.51961 l 0.0555,-0.5833 q 0.0111,-0.11666 -0.33111,-0.14922 -0.18666,-0.0178 -0.55219,-0.0525 -0.37406,-0.0277 -0.55293,-0.0448 -0.6533,-0.0622 -0.91624,0.0619 -0.35441,0.17817 -0.41287,0.79258 -0.0185,0.19444 0.033,0.56034 0.0585,0.37441 0.0445,0.52218 -0.0155,0.16333 -0.18664,0.14705 z"
           style="letter-spacing:1.33px"
           id="path251" />
        <path
           d="m 113.32723,113.34887 q -1.24078,-0.11495 -1.11129,-1.51261 0.0555,-0.599 0.40559,-0.96214 0.38193,-0.39614 0.96666,-0.34197 0.55622,0.0515 0.8718,0.52669 0.29037,0.43685 0.23752,1.00732 -0.0515,0.55622 -0.42435,0.93163 -0.39684,0.40195 -0.94593,0.35108 z m -5.2811,-0.67627 q -0.52056,-0.0482 -1.55653,-0.12263 -1.02884,-0.0737 -1.54226,-0.12131 -0.14975,-0.0139 -0.16176,-0.19479 -0.0203,-0.24641 0.0583,-1.09499 0.0793,-0.85571 0.14453,-1.0942 0.0431,-0.15424 0.11054,-0.18395 0.0298,-0.0116 0.21525,0.006 0.49203,0.0456 1.47412,0.15815 0.98922,0.11322 1.48838,0.15947 2.02519,0.18762 3.23772,0.14173 0.11542,-0.004 0.15107,-3.9e-4 0.14262,0.0132 0.12478,0.20575 -0.0185,0.19967 -0.0989,0.60217 -0.0811,0.40963 -0.10026,0.61642 -0.0192,0.2068 -0.0218,0.6237 -0.003,0.4169 -0.0218,0.62369 -0.0159,0.17115 -0.15848,0.15793 -0.0285,-0.003 -0.13417,-0.0268 -1.37599,-0.28571 -3.20864,-0.4555 z"
           style="font-size:14.6667px;letter-spacing:1.33px"
           id="path253" />
      </g>
      <g
         inkscape:groupmode="layer"
         id="layer4"
         inkscape:label="linea testo"
         style="display:none;fill:#ffffff">
        <path
           style="display:inline;opacity:0.3;fill:#ffffff"
           d="m 92.857663,37.557546 c 0,0 9.309237,13.402455 10.819257,17.20648 2.00864,5.060146 3.53485,9.079333 4.69304,13.296866 3.32778,12.118044 1.64373,8.670624 1.82213,13.058152 0.18421,4.530193 1.10028,12.475312 0.5828,17.452133 -0.52952,5.092603 -2.57855,27.736563 -2.57855,27.736563"
           id="path517"
           sodipodi:nodetypes="cssssc"
           inkscape:label="path517" />
      </g>
      <text
         xml:space="preserve"
         id="text720"
         style="font-style:normal;font-variant:normal;font-weight:normal;font-stretch:normal;font-family:sans-serif;-inkscape-font-specification:sans-serif;writing-mode:vertical-lr;direction:ltr;white-space:pre;shape-inside:url(#rect722);display:inline;opacity:0.3;fill:#ffffff"
         inkscape:label="text720" />
      <text
         xml:space="preserve"
         style="font-size:14.6667px;font-family:'Berlin Sans FB Demi';-inkscape-font-specification:'Berlin Sans FB Demi';writing-mode:vertical-lr;opacity:0.3;fill:#ffffff"
         x="103.66693"
         y="59.317936"
         id="text258"><tspan
           sodipodi:role="line"
           id="tspan256"></tspan></text>
      <text
         xml:space="preserve"
         style="font-size:14.6667px;font-family:'Berlin Sans FB Demi';-inkscape-font-specification:'Berlin Sans FB Demi';writing-mode:vertical-lr;opacity:0.3;fill:#ffffff"
         x="148.57378"
         y="56.156792"
         id="text262"><tspan
           sodipodi:role="line"
           id="tspan260"></tspan></text>
    </g>
  </g>
</svg>
